<svg width="49" height="41" viewBox="0 0 49 41" fill="none" xmlns="http://www.w3.org/2000/svg">
<path d="M0 31.607L4.13884 38.4076C4.55037 39.1862 5.1813 39.8409 5.9613 40.2986C6.7413 40.7564 7.6397 40.9992 8.55636 41H36.0307L30.3285 31.607H0ZM48.9985 31.6521C48.9964 30.7487 48.7222 29.8648 48.2084 29.1048L32.1063 2.50218C31.6864 1.74646 31.0576 1.11403 30.2874 0.673083C29.5173 0.232136 28.6352 -0.000589866 27.7362 1.12278e-06H19.2273L44.094 40.9534L48.0185 34.5022C48.7841 33.2664 49 32.7205 49 31.6521H48.9985ZM26.277 24.936L15.1681 6.64192L4.05156 24.936H26.277Z" fill="#139FFB"/>
<path d="M4.80192 38.0571L4.79132 38.037L4.77952 38.0177L1.33443 32.357H29.9064L34.698 40.25H8.55701C7.7717 40.2493 7.00436 40.0412 6.3409 39.6518C5.6777 39.2626 5.14651 38.7091 4.80192 38.0571ZM48.2485 31.6539L48.2488 31.7803C48.2407 32.1864 48.1922 32.4723 48.089 32.765C47.9682 33.1077 47.7604 33.4947 47.3809 34.1072L47.3777 34.1124L44.0946 39.5093L20.5601 0.750001L27.7362 0.750001L27.7367 0.750001C28.5066 0.749495 29.2598 0.94893 29.9148 1.32394C30.5695 1.69882 31.0991 2.23353 31.4506 2.8664L31.4574 2.8786L31.4646 2.89055L47.5667 29.4932L47.5765 29.5093L47.587 29.5249C48.0187 30.1633 48.2467 30.902 48.2485 31.6539ZM5.38492 24.186L15.1679 8.08654L24.9441 24.186H5.38492Z" stroke="url(#paint0_radial_237_2738)" stroke-opacity="0.5" stroke-width="1.5"/>
<defs>
<radialGradient id="paint0_radial_237_2738" cx="0" cy="0" r="1" gradientUnits="userSpaceOnUse" gradientTransform="translate(24.5 12.0071) rotate(90) scale(49.7857 59.5)">
<stop stop-color="white"/>
<stop offset="1" stop-color="white" stop-opacity="0"/>
</radialGradient>
</defs>
</svg>
