<svg width="48" height="41" viewBox="0 0 48 41" fill="none" xmlns="http://www.w3.org/2000/svg">
<path d="M47.9232 34.55L47.8732 40.45L35.1232 30.2C33.6232 33.0667 31.3232 35.3833 28.2232 37.15C25.1566 38.9167 21.7732 39.8 18.0732 39.8C13.0732 39.8 8.95658 38.5667 5.72324 36.1C2.48991 33.6 0.873242 30.35 0.873242 26.35C0.873242 23.1167 1.92324 20.4167 4.02324 18.25C6.15658 16.0833 8.70658 15 11.6732 15C12.7399 15 13.7899 15.15 14.8232 15.45V14L5.67324 6.6V0.849998L37.0232 0.849998L34.2232 5.95L12.6232 5.95L33.8232 23.15C34.7232 20.7167 35.1566 17.95 35.1232 14.85L40.0732 14.95C40.0732 18.5167 39.2066 22.2333 37.4732 26.1L47.9232 34.55ZM30.5732 28.15V26.65L22.9232 20.5C20.2899 18.9667 17.7899 18.2 15.4232 18.2C12.9566 18.2 10.9399 18.9833 9.37324 20.55C7.83991 22.0833 7.07324 24 7.07324 26.3C7.07324 29.0667 8.15658 31.2167 10.3232 32.75C12.4899 34.2833 15.2066 35.05 18.4732 35.05C20.8732 35.05 23.1899 34.4333 25.4232 33.2C27.6899 31.9333 29.4066 30.25 30.5732 28.15Z" fill="url(#paint0_linear_237_3485)"/>
<defs>
<linearGradient id="paint0_linear_237_3485" x1="-38" y1="13.581" x2="86.7637" y2="25.2532" gradientUnits="userSpaceOnUse">
<stop stop-color="#A2A1A2"/>
<stop offset="0.408668" stop-color="#EDECED"/>
<stop offset="0.873427" stop-color="#A0A0A0"/>
</linearGradient>
</defs>
</svg>
