<svg width="20" height="18" viewBox="0 0 20 18" fill="none" xmlns="http://www.w3.org/2000/svg">
<path d="M1.28971 17.488C0.972402 17.7542 0.499335 17.7128 0.233084 17.3955C-0.0331675 17.0782 0.00822046 16.6052 0.325526 16.3389L1.28971 17.488ZM19.2581 0.739403C19.6707 0.775504 19.9759 1.13928 19.9398 1.55192L19.3515 8.27623C19.3154 8.68887 18.9517 8.99411 18.539 8.95801C18.1264 8.92191 17.8211 8.55813 17.8572 8.1455L18.3802 2.16833L12.403 1.64539C11.9904 1.60929 11.6851 1.24552 11.7212 0.832881C11.7573 0.420244 12.1211 0.115001 12.5337 0.151102L19.2581 0.739403ZM0.325526 16.3389L18.7106 0.912016L19.6748 2.06108L1.28971 17.488L0.325526 16.3389Z" fill="#0E0E0F"/>
</svg>
