<svg width="17" height="12" viewBox="0 0 17 12" fill="none" xmlns="http://www.w3.org/2000/svg">
<path d="M1 6.75C0.585786 6.75 0.25 6.41421 0.25 6C0.25 5.58579 0.585786 5.25 1 5.25L1 6.75ZM16.5303 5.46967C16.8232 5.76256 16.8232 6.23744 16.5303 6.53033L11.7574 11.3033C11.4645 11.5962 10.9896 11.5962 10.6967 11.3033C10.4038 11.0104 10.4038 10.5355 10.6967 10.2426L14.9393 6L10.6967 1.75736C10.4038 1.46447 10.4038 0.989593 10.6967 0.696699C10.9896 0.403806 11.4645 0.403806 11.7574 0.696699L16.5303 5.46967ZM1 5.25L16 5.25V6.75L1 6.75L1 5.25Z" fill="black"/>
</svg>
