<svg width="62" height="64" viewBox="0 0 62 64" fill="none" xmlns="http://www.w3.org/2000/svg">
<path d="M61.3806 58.9553C60.6522 57.9575 59.372 57.4887 58.1737 57.7721C57.9053 57.8357 57.6577 57.9298 57.4316 58.0482C57.0421 58.2525 56.5678 58.1822 56.2499 57.8778L52.3063 53.8636C51.771 53.3517 51.5928 52.5669 51.8552 51.8718L53.9243 46.5836C54.2462 45.7313 53.8957 44.7711 53.1018 44.3311L52.5616 44.0311L52.5622 44.0306L52.5468 44.0228L52.4642 43.9769L52.4356 43.9791L35.5937 36.1401V24.9998C35.5937 24.8752 35.5277 24.7601 35.4204 24.6976L35.0314 24.4712C34.8978 24.3937 34.7333 24.3926 34.599 24.4695L34.1825 24.7064C34.0742 24.7684 34.0071 24.8846 34.0071 25.0103V36.248L22.5666 41.7697C22.3349 41.8815 22.3322 42.2125 22.5627 42.3276L23.4507 42.7715C23.6663 42.8788 23.9194 42.881 24.1367 42.777L34.8317 37.6222L47.86 43.745C48.2996 43.9525 48.2869 44.5857 47.8396 44.7755L35.1503 50.1605C34.8389 50.2878 34.4884 50.2734 34.188 50.1212L21.3172 43.4456C20.9227 43.2469 20.6735 42.8412 20.6735 42.3973V30.5846C20.6735 30.1413 20.9221 29.7361 21.3155 29.5369L34.2662 23.014C34.5952 22.8457 34.9841 22.8441 35.3142 23.0101L48.2957 29.3033C48.6445 29.4755 48.8673 29.8302 48.8712 30.221L48.9284 36.1949C48.9322 36.5751 49.3344 36.8175 49.6694 36.6409L56.2603 33.1764C56.7824 32.9052 57.1097 32.3628 57.1097 31.7717L57.107 31.0473C57.1048 30.7584 56.9898 30.4816 56.7868 30.2763L41.5761 14.2258C41.1283 13.7725 40.9456 13.1184 41.0931 12.4968L42.5834 5.97228C42.694 5.50793 43.0615 5.14653 43.528 5.05743C44.2752 4.91519 44.9579 4.43757 45.3331 3.67437C45.8486 2.62614 45.5691 1.32498 44.6696 0.583917C43.4774 -0.397896 41.7395 -0.0995901 40.9253 1.16393C40.2585 2.19887 40.4312 3.53821 41.273 4.37059C41.279 4.37668 41.2889 4.38499 41.301 4.39495C41.6861 4.71374 41.8677 5.21737 41.7516 5.70496L40.2524 12.2782C40.0945 12.9429 39.5845 13.4654 38.9265 13.6358L18.0701 19.0087C17.438 19.1725 16.9412 19.6645 16.769 20.2977L11.1035 40.7508C10.9451 41.3331 10.5132 41.8002 9.94764 42.0016L3.42994 44.3178C3.12186 44.4274 2.77086 44.3953 2.51064 44.1966C2.13928 43.9138 1.63919 43.7931 1.11324 43.9425C0.613147 44.0842 0.211533 44.4833 0.0673923 44.9852C-0.240695 46.0573 0.55043 47.0319 1.56767 47.0319C2.25041 47.0319 2.83138 46.593 3.04649 45.9798C3.05584 45.9532 3.06409 45.9195 3.07179 45.8824C3.14276 45.5415 3.38758 45.2625 3.71383 45.1463L9.87061 42.9591C10.5347 42.7222 11.2746 42.8893 11.7747 43.3891L26.3505 58.74C26.7984 59.2121 27.4624 59.4086 28.0929 59.2553L49.9577 54.0313C50.5662 53.878 51.2104 54.049 51.6648 54.4835L55.6843 58.5701C55.9896 58.8618 56.1112 59.3118 55.9599 59.7075C55.5077 60.8902 55.7646 62.3391 56.9623 63.3469C57.4503 63.7581 58.3889 64.0481 59.0232 63.9934C61.6496 63.7664 62.8138 60.919 61.3806 58.9553" fill="#FEFEFE"/>
</svg>
