<svg width="293" height="57" viewBox="0 0 293 57" fill="none" xmlns="http://www.w3.org/2000/svg">
<path fill-rule="evenodd" clip-rule="evenodd" d="M51.6057 50.784C52.6687 50.536 53.8044 50.9462 54.4505 51.8193C55.7219 53.5375 54.6892 56.029 52.3593 56.2276C51.7966 56.2755 50.964 56.0218 50.5311 55.662C49.4686 54.7801 49.2407 53.5123 49.6419 52.4774C49.7761 52.1312 49.6682 51.7375 49.3974 51.4823L45.8317 47.9065C45.4286 47.5263 44.8571 47.3767 44.3173 47.5108L24.9211 52.0818C24.3618 52.2159 23.7727 52.044 23.3755 51.6309L10.4453 38.1989C10.0017 37.7616 9.34526 37.6153 8.75619 37.8226L3.29452 39.7364C3.00511 39.8381 2.78793 40.0822 2.72498 40.3805C2.71814 40.4129 2.71083 40.4425 2.70253 40.4657C2.5117 41.0023 1.99633 41.3863 1.39067 41.3863C0.488285 41.3863 -0.21352 40.5335 0.0597835 39.5955C0.18765 39.1563 0.543921 38.8071 0.987551 38.6831C1.45412 38.5524 1.89775 38.658 2.22718 38.9054C2.45802 39.0793 2.76939 39.1073 3.04269 39.0115L8.82452 36.9848C9.32622 36.8085 9.70934 36.3998 9.84989 35.8904L14.8757 17.9939C15.0285 17.4399 15.4692 17.0093 16.03 16.866L34.5316 12.1648C35.1153 12.0156 35.5677 11.5585 35.7078 10.9769L37.0377 5.22523C37.1407 4.7986 36.9796 4.35792 36.638 4.07898C36.6273 4.07027 36.6185 4.06299 36.6131 4.05767C35.8664 3.32933 35.7132 2.15741 36.3047 1.25183C37.027 0.146255 38.5687 -0.114761 39.6263 0.744324C40.4242 1.39276 40.6721 2.53127 40.2149 3.44847C39.882 4.11627 39.2763 4.53419 38.6136 4.65865C38.1997 4.73661 37.8737 5.05284 37.7756 5.45914L36.4535 11.1681C36.3227 11.712 36.4848 12.2844 36.882 12.681L50.3754 26.7252C50.5555 26.9048 50.6575 27.147 50.6594 27.3997L50.6619 28.0337C50.6619 28.5508 50.3715 29.0254 49.9083 29.2627L44.0616 32.2942C43.7644 32.4487 43.4076 32.2366 43.4042 31.9039L43.3534 26.6767C43.35 26.3348 43.1524 26.0244 42.843 25.8738L31.3271 20.3672C31.0343 20.222 30.6893 20.2234 30.3974 20.3706L18.9089 26.0782C18.56 26.2525 18.3394 26.607 18.3394 26.9949V37.3311C18.3394 37.7194 18.5605 38.0744 18.9104 38.2483L30.3281 44.0895C30.5946 44.2226 30.9055 44.2352 31.1817 44.1239L42.4384 39.412C42.8351 39.2458 42.8464 38.6918 42.4564 38.5102L30.8991 33.1528L21.4116 37.6633C21.2188 37.7543 20.9943 37.7524 20.803 37.6584L20.0153 37.27C19.8108 37.1693 19.8133 36.8797 20.0187 36.7819L30.1675 31.9504V22.1174C30.1675 22.0075 30.2271 21.9058 30.3232 21.8515L30.6927 21.6442C30.8118 21.5769 30.9577 21.5779 31.0763 21.6457L31.4213 21.8438C31.5165 21.8985 31.5751 21.9992 31.5751 22.1082V31.856L46.5155 38.7151L46.5408 38.7132L46.6141 38.7534L46.6277 38.7601L46.6272 38.7606L47.1065 39.0231C47.8107 39.4081 48.1216 40.2483 47.8361 40.994L46.0006 45.6212C45.7678 46.2294 45.9259 46.9161 46.4008 47.3641L49.8991 50.8764C50.1811 51.1428 50.6018 51.2043 50.9474 51.0256C51.148 50.922 51.3676 50.8396 51.6057 50.784ZM181.575 15.488C177.113 15.488 174 18.8711 174 23.0012C174 27.2144 177.175 30.5144 181.451 30.5144C184.253 30.5144 185.913 29.6429 187.408 28.0447L185.374 25.8654C184.232 26.9031 183.215 27.5675 181.555 27.5675C179.064 27.5675 177.342 25.4922 177.342 23.0012C177.342 20.4693 179.106 18.4356 181.555 18.4356C183.215 18.4356 184.17 19.0372 185.291 20.0543L187.2 17.8546C185.851 16.5264 184.315 15.488 181.575 15.488ZM206.231 23.0015C206.231 20.5112 204.404 18.4358 201.831 18.4358C199.258 18.4358 197.473 20.4695 197.473 23.0015C197.473 25.4924 199.299 27.5677 201.872 27.5677C204.446 27.5677 206.231 25.5335 206.231 23.0015ZM194.131 23.0015C194.131 18.8713 197.39 15.4883 201.872 15.4883C206.355 15.4883 209.573 18.8303 209.573 23.0015C209.573 27.1317 206.314 30.5146 201.831 30.5146C197.348 30.5146 194.131 27.1733 194.131 23.0015ZM226.53 20.6976C226.53 21.9636 225.637 22.7941 224.08 22.7941H220.843V18.6223H224.018C225.575 18.6223 226.53 19.3277 226.53 20.6976ZM224.288 15.7376H217.646V30.2656H220.843V25.6166H223.313L226.467 30.2656H230.203L226.655 25.0772C228.502 24.3917 229.768 22.9185 229.768 20.5732C229.768 19.1616 229.332 18.02 228.522 17.2107C227.567 16.2564 226.135 15.7376 224.288 15.7376ZM244.792 27.4636C246.203 27.4636 247.055 26.9653 247.055 25.8449C247.055 24.8695 246.328 24.2672 244.689 24.2672H240.994V27.4636H244.792ZM243.941 21.6109C245.352 21.6109 246.245 21.1542 246.245 20.0338C246.245 19.0789 245.498 18.5389 244.149 18.5389H240.994V21.6109H243.941ZM237.881 15.7376H244.626C246.287 15.7376 247.594 16.1942 248.424 17.0241C249.088 17.6885 249.42 18.4978 249.42 19.5355C249.42 21.1747 248.549 22.088 247.511 22.6697C249.192 23.3129 250.23 24.2884 250.23 26.2804C250.23 28.9374 248.072 30.2656 244.792 30.2656H237.881V15.7376ZM264.509 19.4733L266.44 24.1845H262.58L264.509 19.4733ZM266.025 15.6336H263.077L256.851 30.2656H260.109L261.438 27.007H267.581L268.91 30.2656H272.251L266.025 15.6336ZM283.27 22.8768L278.413 15.7375H282.15L285.2 20.4487L288.272 15.7375H291.904L287.048 22.8351L292.112 30.2656H288.376L285.117 25.2843L281.838 30.2656H278.206L283.27 22.8768ZM248.727 39.8457H247.456V41.1164C246.816 40.1413 245.89 39.6537 244.679 39.6537C243.625 39.6537 242.733 40.028 242.004 40.7766C241.275 41.5154 240.911 42.4216 240.911 43.4952C240.911 44.5689 241.275 45.4801 242.004 46.2287C242.733 46.9773 243.625 47.3516 244.679 47.3516C245.88 47.3516 246.806 46.8591 247.456 45.8741V46.9231C247.456 47.6225 247.235 48.1741 246.791 48.578C246.358 48.9818 245.757 49.1837 244.989 49.1837C243.787 49.1837 242.984 48.77 242.58 47.9426L241.458 48.578C241.763 49.1591 242.216 49.6024 242.817 49.9077C243.418 50.2229 244.132 50.3805 244.959 50.3805C245.994 50.3805 246.88 50.0752 247.619 49.4645C248.358 48.8636 248.727 48.0165 248.727 46.9231V39.8457ZM244.826 46.1253C244.078 46.1253 243.452 45.8741 242.95 45.3717C242.447 44.8694 242.196 44.2439 242.196 43.4952C242.196 42.7565 242.447 42.1359 242.95 41.6336C243.452 41.1312 244.078 40.88 244.826 40.88C245.575 40.88 246.2 41.1312 246.703 41.6336C247.205 42.1359 247.456 42.7565 247.456 43.4952C247.456 44.2439 247.205 44.8694 246.703 45.3717C246.2 45.8741 245.575 46.1253 244.826 46.1253ZM259.407 39.8457H258.121V41.1164C257.481 40.1413 256.55 39.6537 255.329 39.6537C254.294 39.6537 253.413 40.0329 252.684 40.7914C251.955 41.54 251.591 42.4561 251.591 43.5396C251.591 44.6231 251.955 45.5441 252.684 46.3026C253.413 47.0512 254.294 47.4255 255.329 47.4255C256.55 47.4255 257.481 46.9379 258.121 45.9627V47.2334H259.407V39.8457ZM257.368 45.4308C256.865 45.9332 256.24 46.1844 255.491 46.1844C254.753 46.1844 254.132 45.9332 253.63 45.4308C253.127 44.9186 252.876 44.2882 252.876 43.5396C252.876 42.791 253.127 42.1655 253.63 41.6631C254.132 41.1509 254.753 40.8948 255.491 40.8948C256.24 40.8948 256.865 41.1509 257.368 41.6631C257.87 42.1655 258.121 42.791 258.121 43.5396C258.121 44.2882 257.87 44.9186 257.368 45.4308ZM272.672 40.4663C272.16 39.9245 271.49 39.6537 270.663 39.6537C269.628 39.6537 268.855 40.0723 268.343 40.9096C267.89 40.0723 267.166 39.6537 266.171 39.6537C265.206 39.6537 264.472 40.0477 263.97 40.8357V39.8457H262.684V47.2334H263.97V43.1259C263.97 42.3772 264.147 41.8158 264.501 41.4415C264.866 41.0672 265.319 40.88 265.861 40.88C266.343 40.88 266.723 41.0376 266.998 41.3528C267.284 41.668 267.427 42.1113 267.427 42.6826V47.2334H268.712V43.1259C268.712 42.3674 268.875 41.8059 269.2 41.4415C269.535 41.0672 269.978 40.88 270.53 40.88C271.022 40.88 271.416 41.0376 271.712 41.3528C272.007 41.668 272.155 42.1113 272.155 42.6826V47.2334H273.44V42.6383C273.44 41.7222 273.184 40.9982 272.672 40.4663ZM278.355 45.6672C277.882 45.3028 277.582 44.7905 277.454 44.1306H283.645C283.674 43.9336 283.689 43.7415 283.689 43.5543C283.689 42.4807 283.344 41.5646 282.655 40.8061C281.975 40.0378 281.094 39.6537 280.01 39.6537C278.867 39.6537 277.937 40.0231 277.218 40.7618C276.498 41.5006 276.139 42.4265 276.139 43.5396C276.139 44.6625 276.503 45.5933 277.232 46.3321C277.971 47.061 278.927 47.4255 280.099 47.4255C281.547 47.4255 282.63 46.8689 283.349 45.7559L282.256 45.1353C281.813 45.8544 281.103 46.2139 280.128 46.2139C279.429 46.2139 278.838 46.0317 278.355 45.6672ZM278.296 41.4563C278.749 41.0622 279.321 40.8652 280.01 40.8652C280.601 40.8652 281.118 41.0475 281.561 41.4119C282.005 41.7764 282.281 42.3083 282.389 43.0077H277.454C277.562 42.3575 277.843 41.8404 278.296 41.4563ZM287.745 42.5349C287.459 42.3575 287.316 42.1261 287.316 41.8404C287.316 41.5252 287.444 41.2839 287.7 41.1164C287.956 40.9391 288.267 40.8505 288.631 40.8505C289.419 40.8505 289.946 41.1657 290.212 41.7961L291.291 41.1903C291.054 40.7076 290.7 40.3333 290.227 40.0674C289.764 39.7916 289.232 39.6537 288.631 39.6537C287.883 39.6537 287.257 39.8605 286.755 40.2742C286.262 40.6879 286.016 41.2149 286.016 41.8552C286.016 42.3477 286.159 42.7516 286.444 43.0668C286.73 43.382 287.075 43.6085 287.479 43.7464C287.883 43.8843 288.286 44.0075 288.69 44.1158C289.094 44.2143 289.439 44.3522 289.724 44.5295C290.01 44.697 290.153 44.9235 290.153 45.2092C290.153 45.5539 290.015 45.81 289.739 45.9775C289.463 46.1351 289.114 46.2139 288.69 46.2139C288.237 46.2139 287.848 46.1105 287.523 45.9036C287.198 45.6968 286.976 45.416 286.858 45.0614L285.75 45.6968C285.967 46.2188 286.331 46.6375 286.843 46.9527C287.356 47.2679 287.971 47.4255 288.69 47.4255C289.498 47.4255 290.158 47.2235 290.67 46.8197C291.192 46.4158 291.453 45.879 291.453 45.2092C291.453 44.7068 291.31 44.298 291.025 43.9828C290.739 43.6578 290.394 43.4312 289.99 43.3032C289.587 43.1653 289.183 43.0471 288.779 42.9486C288.375 42.8402 288.03 42.7023 287.745 42.5349Z" fill="url(#paint0_linear_655_46)"/>
<defs>
<linearGradient id="paint0_linear_655_46" x1="-158" y1="116.733" x2="353.5" y2="2.73236" gradientUnits="userSpaceOnUse">
<stop stop-color="#A2A1A2"/>
<stop offset="0.531117" stop-color="#F6F5F6"/>
<stop offset="1" stop-color="#A0A0A0"/>
</linearGradient>
</defs>
</svg>
