<svg width="232" height="77" viewBox="0 0 232 77" fill="none" xmlns="http://www.w3.org/2000/svg">
<path fill-rule="evenodd" clip-rule="evenodd" d="M73.9633 70.6185C73.0855 69.4232 71.5429 68.8617 70.099 69.2011C69.7755 69.2774 69.4772 69.3901 69.2047 69.5319C68.7354 69.7766 68.1639 69.6924 67.7807 69.3277L63.0288 64.5195C62.3838 63.9063 62.169 62.9662 62.4852 62.1336L64.9785 55.7992C65.3663 54.7783 64.944 53.6281 63.9874 53.1011L63.3364 52.7418L63.3371 52.7411L63.3185 52.7318L63.2191 52.6768L63.1846 52.6795L42.8902 43.2897V29.9455C42.8902 29.7963 42.8106 29.6584 42.6814 29.5835L42.2127 29.3124C42.0516 29.2196 41.8534 29.2182 41.6916 29.3104L41.1898 29.5941C41.0592 29.6684 40.9783 29.8076 40.9783 29.9581V43.4189L27.1926 50.033C26.9135 50.167 26.9102 50.5634 27.1879 50.7013L28.2579 51.233C28.5178 51.3616 28.8227 51.3642 29.0846 51.2396L41.972 45.065L57.671 52.3991C58.2007 52.6477 58.1854 53.4061 57.6464 53.6334L42.3559 60.0838C41.9806 60.2363 41.5584 60.219 41.1964 60.0367L25.687 52.0404C25.2117 51.8024 24.9114 51.3165 24.9114 50.7848V36.6351C24.9114 36.1041 25.2111 35.6189 25.6851 35.3802L41.2905 27.5669C41.687 27.3653 42.1557 27.3633 42.5534 27.5622L58.196 35.1004C58.6163 35.3066 58.8848 35.7316 58.8894 36.1996L58.9584 43.3553C58.963 43.8107 59.4476 44.1011 59.8514 43.8896L67.7933 39.7397C68.4224 39.4148 68.8169 38.7651 68.8169 38.0571L68.8136 37.1893C68.8109 36.8433 68.6724 36.5118 68.4278 36.2659L50.0989 17.0401C49.5593 16.4972 49.3392 15.7136 49.5169 14.9691L51.3128 7.15379C51.446 6.59759 51.8889 6.16469 52.451 6.05795C53.3513 5.88758 54.174 5.31547 54.6261 4.40128C55.2473 3.14568 54.9105 1.58712 53.8266 0.699448C52.39 -0.476593 50.2958 -0.119278 49.3147 1.3942C48.5112 2.6339 48.7194 4.23819 49.7337 5.23524C49.741 5.24254 49.7529 5.25249 49.7675 5.26443C50.2315 5.64627 50.4503 6.24954 50.3104 6.83359L48.5039 14.7073C48.3137 15.5034 47.6991 16.1292 46.9062 16.3334L21.7744 22.7692C21.0127 22.9654 20.4141 23.5548 20.2066 24.3132L13.3797 48.8126C13.1887 49.51 12.6683 50.0695 11.9868 50.3108L4.13306 53.0852C3.76182 53.2165 3.33887 53.178 3.0253 52.94C2.57782 52.6013 1.97521 52.4567 1.34145 52.6357C0.738839 52.8054 0.254896 53.2834 0.0812073 53.8847C-0.290036 55.1688 0.663265 56.3362 1.88903 56.3362C2.71173 56.3362 3.41179 55.8105 3.671 55.076C3.68227 55.0442 3.69221 55.0037 3.70149 54.9593C3.78701 54.5509 4.08202 54.2168 4.47514 54.0776L11.894 51.4577C12.6942 51.174 13.5858 51.3742 14.1884 51.9728L31.7522 70.3606C32.2919 70.9261 33.092 71.1614 33.8517 70.9778L60.1987 64.7204C60.9319 64.5367 61.7082 64.7416 62.2558 65.262L67.0992 70.1571C67.4672 70.5064 67.6137 71.0454 67.4314 71.5194C66.8864 72.9361 67.196 74.6717 68.6392 75.8789C69.2272 76.3714 70.3582 76.7188 71.1226 76.6532C74.2874 76.3814 75.6902 72.9706 73.9633 70.6185ZM126.204 26.3046C129.192 26.3046 131.314 28.7149 131.314 31.6072C131.314 34.548 129.241 36.9107 126.251 36.9107C123.262 36.9107 121.142 34.5003 121.142 31.6072C121.142 28.6665 123.215 26.3046 126.204 26.3046ZM126.251 22.8811C121.045 22.8811 117.26 26.8103 117.26 31.6072C117.26 36.4526 120.997 40.3334 126.204 40.3334C131.41 40.3334 135.195 36.4042 135.195 31.6072C135.195 26.7626 131.458 22.8811 126.251 22.8811ZM102.677 22.8809C97.4946 22.8809 93.8787 26.8101 93.8787 31.6071C93.8787 36.5004 97.5668 40.3332 102.533 40.3332C105.787 40.3332 107.715 39.321 109.451 37.4647L107.088 34.9337C105.763 36.1389 104.581 36.9105 102.653 36.9105C99.7604 36.9105 97.7597 34.5002 97.7597 31.6071C97.7597 28.6663 99.8086 26.3044 102.653 26.3044C104.581 26.3044 105.69 27.003 106.992 28.1844L109.21 25.6295C107.643 24.0869 105.859 22.8809 102.677 22.8809ZM152.044 31.3663C153.851 31.3663 154.888 30.4017 154.888 28.9313C154.888 27.3403 153.78 26.5209 151.971 26.5209H148.283V31.3663H152.044ZM144.571 23.1705H152.285C154.43 23.1705 156.093 23.7731 157.203 24.8814C158.143 25.8215 158.649 27.1474 158.649 28.7868C158.649 31.5108 157.179 33.2218 155.033 34.018L159.155 40.044H154.816L151.152 34.6445H148.283V40.044H144.571V23.1705ZM178.727 34.9096C178.727 36.2109 177.739 36.7897 176.1 36.7897H171.689V33.0772H175.979C177.884 33.0772 178.727 33.7767 178.727 34.9096ZM177.787 28.1604C177.787 29.4617 176.75 29.992 175.112 29.992H171.689V26.4241H175.353C176.919 26.4241 177.787 27.0513 177.787 28.1604ZM175.907 23.1705H168.073V40.044H176.1C179.909 40.044 182.415 38.5014 182.415 35.4154C182.415 33.1018 181.21 31.9689 179.258 31.2218C180.463 30.5462 181.475 29.4855 181.475 27.5816C181.475 26.3764 181.089 25.4364 180.318 24.6647C179.354 23.7009 177.836 23.1705 175.907 23.1705ZM201.241 32.9812L198.999 27.5094L196.758 32.9812H201.241ZM197.336 23.0498H200.759L207.991 40.044H204.11L202.567 36.2593H195.432L193.889 40.044H190.104L197.336 23.0498ZM215.149 23.1705L220.79 31.4624L214.908 40.044H219.127L222.935 34.2586L226.72 40.044H231.059L225.177 31.4139L230.817 23.1705H226.599L223.032 28.6423L219.489 23.1705H215.149ZM103.614 51.7494H102.138V53.2252C101.395 52.0926 100.319 51.5263 98.9122 51.5263C97.6881 51.5263 96.6527 51.961 95.8061 52.8305C94.9595 53.6885 94.5362 54.741 94.5362 55.988C94.5362 57.235 94.9595 58.2933 95.8061 59.1628C96.6527 60.0322 97.6881 60.467 98.9122 60.467C100.308 60.467 101.383 59.8949 102.138 58.7509V59.9693C102.138 60.7816 101.881 61.4222 101.366 61.8913C100.863 62.3604 100.165 62.5949 99.2726 62.5949C97.8768 62.5949 96.9444 62.1144 96.4754 61.1534L95.1712 61.8913C95.5258 62.5663 96.0521 63.0811 96.75 63.4358C97.4478 63.8019 98.2773 63.9849 99.2382 63.9849C100.439 63.9849 101.469 63.6302 102.327 62.9209C103.185 62.2231 103.614 61.2392 103.614 59.9693V51.7494ZM99.0838 59.0426C98.2143 59.0426 97.4879 58.7509 96.9044 58.1674C96.3209 57.584 96.0292 56.8575 96.0292 55.988C96.0292 55.13 96.3209 54.4093 96.9044 53.8258C97.4879 53.2423 98.2143 52.9506 99.0838 52.9506C99.9533 52.9506 100.68 53.2423 101.263 53.8258C101.847 54.4093 102.138 55.13 102.138 55.988C102.138 56.8575 101.847 57.584 101.263 58.1674C100.68 58.7509 99.9533 59.0426 99.0838 59.0426ZM116.018 51.7494H114.525V53.2252C113.782 52.0926 112.7 51.5263 111.282 51.5263C110.081 51.5263 109.057 51.9667 108.21 52.8476C107.363 53.7171 106.94 54.7811 106.94 56.0395C106.94 57.298 107.363 58.3676 108.21 59.2486C109.057 60.118 110.081 60.5528 111.282 60.5528C112.7 60.5528 113.782 59.9865 114.525 58.8539V60.3297H116.018V51.7494ZM113.65 58.2361C113.067 58.8195 112.34 59.1113 111.471 59.1113C110.613 59.1113 109.892 58.8195 109.308 58.2361C108.725 57.6412 108.433 56.909 108.433 56.0395C108.433 55.17 108.725 54.4436 109.308 53.8601C109.892 53.2652 110.613 52.9678 111.471 52.9678C112.34 52.9678 113.067 53.2652 113.65 53.8601C114.233 54.4436 114.525 55.17 114.525 56.0395C114.525 56.909 114.233 57.6412 113.65 58.2361ZM131.425 52.4701C130.83 51.8409 130.052 51.5263 129.091 51.5263C127.89 51.5263 126.992 52.0125 126.397 52.9849C125.871 52.0125 125.03 51.5263 123.875 51.5263C122.753 51.5263 121.901 51.9839 121.318 52.8991V51.7494H119.825V60.3297H121.318V55.559C121.318 54.6895 121.523 54.0374 121.935 53.6027C122.359 53.168 122.885 52.9506 123.514 52.9506C124.075 52.9506 124.515 53.1336 124.836 53.4997C125.167 53.8658 125.333 54.3807 125.333 55.0442V60.3297H126.826V55.559C126.826 54.6781 127.015 54.026 127.392 53.6027C127.781 53.168 128.296 52.9506 128.937 52.9506C129.509 52.9506 129.967 53.1336 130.31 53.4997C130.653 53.8658 130.825 54.3807 130.825 55.0442V60.3297H132.318V54.9927C132.318 53.9288 132.02 53.0879 131.425 52.4701ZM138.026 58.5107C137.477 58.0874 137.128 57.4925 136.979 56.7259H144.169C144.204 56.4971 144.221 56.274 144.221 56.0567C144.221 54.8097 143.82 53.7457 143.02 52.8648C142.23 51.9724 141.206 51.5263 139.948 51.5263C138.621 51.5263 137.54 51.9553 136.704 52.8133C135.869 53.6713 135.452 54.7467 135.452 56.0395C135.452 57.3437 135.875 58.4248 136.722 59.2829C137.58 60.1295 138.689 60.5528 140.051 60.5528C141.732 60.5528 142.991 59.9064 143.826 58.6136L142.556 57.8929C142.041 58.728 141.218 59.1456 140.085 59.1456C139.273 59.1456 138.586 58.9339 138.026 58.5107ZM137.957 53.6199C138.483 53.1622 139.147 52.9334 139.948 52.9334C140.634 52.9334 141.235 53.1451 141.75 53.5684C142.264 53.9917 142.585 54.6095 142.711 55.4217H136.979C137.105 54.6667 137.431 54.066 137.957 53.6199ZM148.931 54.8726C148.599 54.6667 148.433 54.3978 148.433 54.066C148.433 53.6999 148.582 53.4197 148.879 53.2252C149.177 53.0192 149.537 52.9163 149.961 52.9163C150.876 52.9163 151.488 53.2824 151.797 54.0146L153.049 53.311C152.775 52.7504 152.363 52.3157 151.814 52.0068C151.276 51.6864 150.658 51.5263 149.961 51.5263C149.091 51.5263 148.365 51.7665 147.781 52.247C147.209 52.7275 146.923 53.3396 146.923 54.0832C146.923 54.6552 147.089 55.1243 147.421 55.4904C147.753 55.8565 148.153 56.1196 148.622 56.2798C149.091 56.4399 149.56 56.5829 150.029 56.7088C150.498 56.8232 150.899 56.9834 151.23 57.1893C151.562 57.3838 151.728 57.6469 151.728 57.9787C151.728 58.3791 151.568 58.6765 151.248 58.871C150.927 59.0541 150.521 59.1456 150.029 59.1456C149.503 59.1456 149.051 59.0255 148.674 58.7852C148.296 58.545 148.039 58.2189 147.901 57.8071L146.614 58.545C146.866 59.1513 147.289 59.6375 147.884 60.0036C148.479 60.3697 149.194 60.5528 150.029 60.5528C150.967 60.5528 151.734 60.3182 152.329 59.8492C152.935 59.3801 153.238 58.7566 153.238 57.9787C153.238 57.3952 153.072 56.9204 152.741 56.5543C152.409 56.1768 152.008 55.9137 151.539 55.7649C151.07 55.6048 150.601 55.4675 150.132 55.3531C149.663 55.2272 149.263 55.0671 148.931 54.8726Z" fill="url(#paint0_linear_309_1328)"/>
<defs>
<linearGradient id="paint0_linear_309_1328" x1="-124.634" y1="130.421" x2="302.095" y2="6.29239" gradientUnits="userSpaceOnUse">
<stop stop-color="#A2A1A2"/>
<stop offset="0.531117" stop-color="#F6F5F6"/>
<stop offset="1" stop-color="#A0A0A0"/>
</linearGradient>
</defs>
</svg>
