<svg width="26" height="22" viewBox="0 0 26 22" fill="none" xmlns="http://www.w3.org/2000/svg">
<path d="M0 16.9598L2.19612 20.6089C2.41448 21.0267 2.74926 21.378 3.16314 21.6237C3.57702 21.8693 4.05372 21.9996 4.54011 22H19.1183L16.0927 16.9598H0ZM25.9992 16.9841C25.9981 16.4993 25.8526 16.025 25.58 15.6172L17.036 1.34264C16.8132 0.937127 16.4795 0.597772 16.0709 0.361166C15.6623 0.124561 15.1942 -0.000316514 14.7172 6.02465e-07H10.2022L23.3968 21.975L25.4792 18.5134C25.8854 17.8503 26 17.5574 26 16.9841H25.9992ZM13.9429 13.3803L8.04837 3.56396L2.14981 13.3803H13.9429Z" fill="white"/>
</svg>
