<svg width="65" height="56" viewBox="0 0 65 56" fill="none" xmlns="http://www.w3.org/2000/svg">
<path d="M0 43.1705L5.4903 52.4591C6.0362 53.5226 6.87316 54.4168 7.90785 55.0421C8.94254 55.6673 10.1343 55.9989 11.3503 56H47.7959L40.2317 43.1705H0ZM64.998 43.2322C64.9952 41.9982 64.6315 40.7909 63.9499 39.7529L42.5899 3.41762C42.033 2.38541 41.1988 1.5216 40.1772 0.919332C39.1556 0.317064 37.9855 -0.000805671 36.7929 1.53355e-06H25.5056L58.4921 55.9364L63.698 47.1249C64.7136 45.437 65 44.6914 65 43.2322H64.998ZM34.8572 34.0589L20.1209 9.07189L5.37452 34.0589H34.8572Z" fill="white" fill-opacity="0.9"/>
<path d="M6.37994 52.0025L6.36633 51.9759L6.35116 51.9503L1.75271 44.1705H39.6604L46.0454 55H11.3512C10.3161 54.9991 9.30298 54.7167 8.42501 54.1862C7.54722 53.6558 6.84012 52.899 6.37994 52.0025ZM63.998 43.2344L63.9984 43.4078C63.9876 43.967 63.9227 44.3632 63.7838 44.7688C63.622 45.2414 63.3445 45.7729 62.8412 46.6094L62.8411 46.6094L62.8371 46.6163L58.4929 53.9691L27.2563 1L36.7929 1L36.7936 1C37.8084 0.999314 38.8028 1.26987 39.6694 1.78077C40.5358 2.29158 41.2405 3.02249 41.7098 3.89244L41.7186 3.90858L41.7278 3.9244L63.0878 40.2597L63.1004 40.2811L63.114 40.3018C63.6897 41.1785 63.9956 42.1961 63.998 43.2344ZM7.12584 33.0589L20.1206 11.0399L33.1065 33.0589H7.12584Z" stroke="url(#paint0_radial_237_730)" stroke-opacity="0.5" stroke-width="2"/>
<defs>
<radialGradient id="paint0_radial_237_730" cx="0" cy="0" r="1" gradientUnits="userSpaceOnUse" gradientTransform="translate(32.5 16.4) rotate(90) scale(68 78.9286)">
<stop stop-color="white"/>
<stop offset="1" stop-color="white" stop-opacity="0"/>
</radialGradient>
</defs>
</svg>
