<svg width="120" height="109" viewBox="0 0 120 109" fill="none" xmlns="http://www.w3.org/2000/svg">
<path fill-rule="evenodd" clip-rule="evenodd" d="M41.7279 98.1234H40.4379V99.4134C39.7879 98.4234 38.8479 97.9284 37.6179 97.9284C36.5479 97.9284 35.6429 98.3084 34.9029 99.0684C34.1629 99.8184 33.7929 100.738 33.7929 101.828C33.7929 102.918 34.1629 103.843 34.9029 104.603C35.6429 105.363 36.5479 105.743 37.6179 105.743C38.8379 105.743 39.7779 105.243 40.4379 104.243V105.308C40.4379 106.018 40.2129 106.578 39.7629 106.988C39.3229 107.398 38.7129 107.603 37.9329 107.603C36.7129 107.603 35.8979 107.183 35.4879 106.343L34.3479 106.988C34.6579 107.578 35.1179 108.028 35.7279 108.338C36.3379 108.658 37.0629 108.818 37.9029 108.818C38.9529 108.818 39.8529 108.508 40.6029 107.888C41.3529 107.278 41.7279 106.418 41.7279 105.308V98.1234ZM37.7679 104.498C37.0079 104.498 36.3729 104.243 35.8629 103.733C35.3529 103.223 35.0979 102.588 35.0979 101.828C35.0979 101.078 35.3529 100.448 35.8629 99.9384C36.3729 99.4284 37.0079 99.1734 37.7679 99.1734C38.5279 99.1734 39.1629 99.4284 39.6729 99.9384C40.1829 100.448 40.4379 101.078 40.4379 101.828C40.4379 102.588 40.1829 103.223 39.6729 103.733C39.1629 104.243 38.5279 104.498 37.7679 104.498ZM52.5701 98.1234H51.2651V99.4134C50.6151 98.4234 49.6701 97.9284 48.4301 97.9284C47.3801 97.9284 46.4851 98.3134 45.7451 99.0834C45.0051 99.8434 44.6351 100.773 44.6351 101.873C44.6351 102.973 45.0051 103.908 45.7451 104.678C46.4851 105.438 47.3801 105.818 48.4301 105.818C49.6701 105.818 50.6151 105.323 51.2651 104.333V105.623H52.5701V98.1234ZM50.5001 103.793C49.9901 104.303 49.3551 104.558 48.5951 104.558C47.8451 104.558 47.2151 104.303 46.7051 103.793C46.1951 103.273 45.9401 102.633 45.9401 101.873C45.9401 101.113 46.1951 100.478 46.7051 99.9684C47.2151 99.4484 47.8451 99.1884 48.5951 99.1884C49.3551 99.1884 49.9901 99.4484 50.5001 99.9684C51.0101 100.478 51.2651 101.113 51.2651 101.873C51.2651 102.633 51.0101 103.273 50.5001 103.793ZM66.0373 98.7534C65.5173 98.2034 64.8373 97.9284 63.9973 97.9284C62.9473 97.9284 62.1623 98.3534 61.6423 99.2034C61.1823 98.3534 60.4473 97.9284 59.4373 97.9284C58.4573 97.9284 57.7123 98.3284 57.2023 99.1284V98.1234H55.8973V105.623H57.2023V101.453C57.2023 100.693 57.3823 100.123 57.7423 99.7434C58.1123 99.3634 58.5723 99.1734 59.1223 99.1734C59.6123 99.1734 59.9973 99.3334 60.2773 99.6534C60.5673 99.9734 60.7123 100.423 60.7123 101.003V105.623H62.0173V101.453C62.0173 100.683 62.1823 100.113 62.5123 99.7434C62.8523 99.3634 63.3023 99.1734 63.8623 99.1734C64.3623 99.1734 64.7623 99.3334 65.0623 99.6534C65.3623 99.9734 65.5123 100.423 65.5123 101.003V105.623H66.8173V100.958C66.8173 100.028 66.5573 99.2934 66.0373 98.7534ZM71.8068 104.033C71.3268 103.663 71.0218 103.143 70.8918 102.473H77.1768C77.2068 102.273 77.2218 102.078 77.2218 101.888C77.2218 100.798 76.8718 99.8684 76.1718 99.0984C75.4818 98.3184 74.5868 97.9284 73.4868 97.9284C72.3268 97.9284 71.3818 98.3034 70.6518 99.0534C69.9218 99.8034 69.5568 100.743 69.5568 101.873C69.5568 103.013 69.9268 103.958 70.6668 104.708C71.4168 105.448 72.3868 105.818 73.5768 105.818C75.0468 105.818 76.1468 105.253 76.8768 104.123L75.7668 103.493C75.3168 104.223 74.5968 104.588 73.6068 104.588C72.8968 104.588 72.2968 104.403 71.8068 104.033ZM71.7468 99.7584C72.2068 99.3584 72.7868 99.1584 73.4868 99.1584C74.0868 99.1584 74.6118 99.3434 75.0618 99.7134C75.5118 100.083 75.7918 100.623 75.9018 101.333H70.8918C71.0018 100.673 71.2868 100.148 71.7468 99.7584ZM81.3389 100.853C81.0489 100.673 80.9039 100.438 80.9039 100.148C80.9039 99.8284 81.0339 99.5834 81.2939 99.4134C81.5539 99.2334 81.8689 99.1434 82.2389 99.1434C83.0389 99.1434 83.5739 99.4634 83.8439 100.103L84.9389 99.4884C84.6989 98.9984 84.3389 98.6184 83.8589 98.3484C83.3889 98.0684 82.8489 97.9284 82.2389 97.9284C81.4789 97.9284 80.8439 98.1384 80.3339 98.5584C79.8339 98.9784 79.5839 99.5134 79.5839 100.163C79.5839 100.663 79.7289 101.073 80.0189 101.393C80.3089 101.713 80.6589 101.943 81.0689 102.083C81.4789 102.223 81.8889 102.348 82.2989 102.458C82.7089 102.558 83.0589 102.698 83.3489 102.878C83.6389 103.048 83.7839 103.278 83.7839 103.568C83.7839 103.918 83.6439 104.178 83.3639 104.348C83.0839 104.508 82.7289 104.588 82.2989 104.588C81.8389 104.588 81.4439 104.483 81.1139 104.273C80.7839 104.063 80.5589 103.778 80.4389 103.418L79.3139 104.063C79.5339 104.593 79.9039 105.018 80.4239 105.338C80.9439 105.658 81.5689 105.818 82.2989 105.818C83.1189 105.818 83.7889 105.613 84.3089 105.203C84.8389 104.793 85.1039 104.248 85.1039 103.568C85.1039 103.058 84.9589 102.643 84.6689 102.323C84.3789 101.993 84.0289 101.763 83.6189 101.633C83.2089 101.493 82.7989 101.373 82.3889 101.273C81.9789 101.163 81.6289 101.023 81.3389 100.853ZM7.69062 72.9998C3.16058 72.9998 0 76.4343 0 80.6273C0 84.9045 3.22374 88.2547 7.56429 88.2547C10.4089 88.2547 12.0943 87.3699 13.6115 85.7474L11.5466 83.535C10.3876 84.5885 9.35519 85.263 7.66952 85.263C5.14114 85.263 3.39237 83.1561 3.39237 80.6273C3.39237 78.0568 5.18327 75.9922 7.66952 75.9922C9.35519 75.9922 10.3245 76.6029 11.4623 77.6355L13.4006 75.4023C12.0312 74.054 10.4721 72.9998 7.69062 72.9998ZM28.255 75.9922C30.8672 75.9922 32.7215 78.0991 32.7215 80.6273C32.7215 83.1978 30.9095 85.263 28.2967 85.263C25.6839 85.263 23.8302 83.1561 23.8302 80.6273C23.8302 78.0568 25.6422 75.9922 28.255 75.9922ZM28.2967 72.9998C23.7456 72.9998 20.4374 76.4343 20.4374 80.6273C20.4374 84.8626 23.7039 88.2547 28.255 88.2547C32.8061 88.2547 36.1143 84.8203 36.1143 80.6273C36.1143 76.3926 32.8479 72.9998 28.2967 72.9998ZM50.8414 80.417C52.4216 80.417 53.3279 79.5739 53.3279 78.2886C53.3279 76.8979 52.3591 76.1817 50.7783 76.1817H47.5547V80.417H50.8414ZM44.3097 73.2532H51.0524C52.9275 73.2532 54.3814 73.7798 55.3508 74.7487C56.1725 75.5703 56.6152 76.7293 56.6152 78.1623C56.6152 80.5433 55.33 82.0389 53.4548 82.7349L57.0574 88.0022H53.2648L50.0621 83.2825H47.5547V88.0022H44.3097V73.2532ZM74.1655 83.5142C74.1655 84.6517 73.3015 85.1576 71.8691 85.1576H68.0133V81.9125H71.7636C73.4284 81.9125 74.1655 82.5239 74.1655 83.5142ZM73.3438 77.6148C73.3438 78.7522 72.4375 79.2158 71.0051 79.2158H68.0133V76.0971H71.216C72.5853 76.0971 73.3438 76.6453 73.3438 77.6148ZM71.7005 73.2532H64.8523V88.0022H71.8691C75.1981 88.0022 77.3891 86.6537 77.3891 83.9563C77.3891 81.934 76.3356 80.9437 74.6291 80.2907C75.6826 79.7001 76.5674 78.773 76.5674 77.1089C76.5674 76.0554 76.2301 75.2337 75.5562 74.5592C74.7137 73.7167 73.3861 73.2532 71.7005 73.2532ZM93.8448 81.8286L91.885 77.0457L89.9258 81.8286H93.8448ZM90.4311 73.1477H93.4235L99.7443 88.0022H96.3521L95.0037 84.694H88.7669L87.4179 88.0022H84.1097L90.4311 73.1477ZM106.001 73.2532L110.932 80.501L105.791 88.0022H109.478L112.807 82.9452L116.115 88.0022H119.908L114.767 80.4587L119.697 73.2532H116.01L112.892 78.036L109.795 73.2532H106.001ZM90.592 61.727C89.8248 60.6823 88.4764 60.1914 87.2143 60.4881C86.9315 60.5548 86.6708 60.6533 86.4326 60.7773C86.0223 60.9911 85.5228 60.9175 85.1879 60.5988L81.0343 56.3959C80.4705 55.8599 80.2827 55.0383 80.5591 54.3104L82.7385 48.7737C83.0775 47.8813 82.7084 46.8759 81.8722 46.4152L81.3032 46.1012L81.3037 46.1006L81.2875 46.0925L81.2006 46.0444L81.1705 46.0467L63.4313 37.8391V26.175C63.4313 26.0447 63.3617 25.9241 63.2487 25.8587L62.8391 25.6217C62.6982 25.5405 62.525 25.5394 62.3836 25.6199L61.9449 25.8679C61.8308 25.9328 61.7601 26.0545 61.7601 26.1861V37.9521L49.7101 43.7335C49.4661 43.8505 49.4632 44.197 49.706 44.3176L50.6413 44.7823C50.8684 44.8947 51.135 44.897 51.3639 44.7881L62.6287 39.3909L76.3511 45.8016C76.814 46.0189 76.8007 46.6818 76.3296 46.8805L62.9642 52.5187C62.6362 52.652 62.2671 52.6369 61.9507 52.4776L48.3941 45.4881C47.9786 45.28 47.7161 44.8553 47.7161 44.3906V32.0224C47.7161 31.5583 47.9781 31.1341 48.3924 30.9255L62.033 24.0959C62.3795 23.9198 62.7892 23.918 63.1369 24.0919L76.81 30.681C77.1774 30.8612 77.412 31.2326 77.4161 31.6417L77.4764 37.8965C77.4804 38.2946 77.904 38.5484 78.2569 38.3635L85.1989 34.7361C85.7488 34.4521 86.0936 33.8843 86.0936 33.2654L86.0907 32.5069C86.0884 32.2044 85.9673 31.9147 85.7535 31.6997L69.7324 14.8946C69.2607 14.42 69.0683 13.7351 69.2236 13.0843L70.7934 6.25301C70.9099 5.76684 71.2969 5.38844 71.7883 5.29515C72.5752 5.14623 73.2944 4.64615 73.6896 3.84707C74.2325 2.74956 73.9381 1.38723 72.9907 0.61132C71.735 -0.416649 69.9045 -0.104317 69.0469 1.21861C68.3446 2.3022 68.5265 3.70451 69.4131 4.57603C69.4195 4.5824 69.4299 4.5911 69.4426 4.60153C69.8483 4.9353 70.0395 5.46262 69.9172 5.97312L68.3382 12.8554C68.1719 13.5514 67.6347 14.0984 66.9417 14.2769L44.9741 19.9023C44.3083 20.0739 43.785 20.589 43.6037 21.2519L37.6363 42.6667C37.4695 43.2763 37.0146 43.7653 36.4189 43.9762L29.5539 46.4013C29.2294 46.516 28.8597 46.4824 28.5857 46.2744C28.1945 45.9783 27.6678 45.852 27.1138 46.0084C26.5871 46.1568 26.1641 46.5746 26.0122 47.1002C25.6877 48.2226 26.521 49.243 27.5925 49.243C28.3116 49.243 28.9235 48.7835 29.1501 48.1415C29.1599 48.1136 29.1686 48.0783 29.1767 48.0395C29.2515 47.6825 29.5093 47.3905 29.853 47.2688L36.3377 44.9787C37.0372 44.7307 37.8165 44.9057 38.3433 45.429L53.6957 61.5016C54.1673 61.9959 54.8668 62.2016 55.5308 62.0411L78.5605 56.5715C79.2014 56.411 79.88 56.5901 80.3586 57.0449L84.5922 61.3237C84.9138 61.6291 85.0419 62.1002 84.8825 62.5145C84.4062 63.7528 84.6768 65.2699 85.9383 66.3251C86.4523 66.7556 87.4409 67.0593 88.109 67.0019C90.8754 66.7643 92.1015 63.783 90.592 61.727Z" fill="url(#paint0_linear_309_757)"/>
<defs>
<linearGradient id="paint0_linear_309_757" x1="-17" y1="63.9999" x2="124.5" y2="102.865" gradientUnits="userSpaceOnUse">
<stop stop-color="#A2A1A2"/>
<stop offset="0.531117" stop-color="#F6F5F6"/>
<stop offset="1" stop-color="#A0A0A0"/>
</linearGradient>
</defs>
</svg>
